inDegrees=no
num_controls=7
num_derivatives=13
num_iterations=111
num_multipliers=7
num_parameters=0
num_slacks=7
num_states=26
objective=0.423040
objective_accelerations=0.046928
objective_balance=0.006348
objective_effort=0.029535
objective_height=0.339037
objective_ligament=0.001191
solver_duration=1473.825625
status=Solve_Succeeded
success=true
DataType=double
version=3
OpenSimVersion=4.5
endheader
time	/jointset/ground_pelvis/pelvis_tilt/value	/jointset/ground_pelvis/pelvis_tx/value	/jointset/ground_pelvis/pelvis_ty/value	/jointset/hip_l/hip_flexion_l/value	/jointset/hip_l/hip_adduction_l/value	/jointset/hip_l/hip_rotation_l/value	/jointset/back/lumbar_extension/value	/jointset/patellofemoral_l/patellar_flexion_l/value	/jointset/knee_l/knee_flexion_l/value	/jointset/knee_l/knee_adduction_l/value	/jointset/knee_l/knee_rotation_l/value	/jointset/ankle_l/ankle_angle_l/value	/jointset/subtalar_l/subtalar_angle_l/value	/jointset/ground_pelvis/pelvis_tilt/speed	/jointset/ground_pelvis/pelvis_tx/speed	/jointset/ground_pelvis/pelvis_ty/speed	/jointset/hip_l/hip_flexion_l/speed	/jointset/hip_l/hip_adduction_l/speed	/jointset/hip_l/hip_rotation_l/speed	/jointset/back/lumbar_extension/speed	/jointset/patellofemoral_l/patellar_flexion_l/speed	/jointset/knee_l/knee_flexion_l/speed	/jointset/knee_l/knee_adduction_l/speed	/jointset/knee_l/knee_rotation_l/speed	/jointset/ankle_l/ankle_angle_l/speed	/jointset/subtalar_l/subtalar_angle_l/speed	/forceset/tau_hip_flexion_l	/forceset/tau_hip_adduction_l	/forceset/tau_hip_rotation_l	/forceset/tau_knee_flexion_l	/forceset/tau_ankle_angle_l	/forceset/tau_subtalar_angle_l	/forceset/tau_lumbar_extension	lambda_cid13_p0	lambda_cid13_p1	lambda_cid13_p2	lambda_cid13_p3	lambda_cid13_p4	lambda_cid13_p5	lambda_cid14_p0	/jointset/ground_pelvis/pelvis_tilt/accel	/jointset/ground_pelvis/pelvis_tx/accel	/jointset/ground_pelvis/pelvis_ty/accel	/jointset/hip_l/hip_flexion_l/accel	/jointset/hip_l/hip_adduction_l/accel	/jointset/hip_l/hip_rotation_l/accel	/jointset/back/lumbar_extension/accel	/jointset/patellofemoral_l/patellar_flexion_l/accel	/jointset/knee_l/knee_flexion_l/accel	/jointset/knee_l/knee_adduction_l/accel	/jointset/knee_l/knee_rotation_l/accel	/jointset/ankle_l/ankle_angle_l/accel	/jointset/subtalar_l/subtalar_angle_l/accel	gamma_cid13_p0	gamma_cid13_p1	gamma_cid13_p2	gamma_cid13_p3	gamma_cid13_p4	gamma_cid13_p5	gamma_cid14_p0
1.5	-0.3142970137697493	-0.01958816092950152	0.772997685083497	1.123937901733371	-0.3052541277671057	0.006123006501075519	-0.3347360561913294	0.8063497515950877	0.8063497515949817	-0.1733524123781046	0.1689609149674897	0.1782894360286062	-0.01650050152082756	0.3700251301603321	0.1345100928883683	0.4756321583274302	-1.964045826572975	-0.01004137808844529	-0.6913050448515644	0.5749123817849633	-2.058388763635817	-2.05838876363578	0.006396467332222416	-0.03609834539231191	-0.5886135493085636	-0.1114317313986854	-0.1813655740839741	0.02061047694402771	-0.02635869772167553	-0.2561570832663199	0.08528830457423182	0.04055967796900922	0.1844383282757966	-10.74469370621325	-18.78048048103634	6.071802128303492	-0.7168635014362451	-607.8080045010421	-61.17757656237703	-21.17797033730999	0.4358783918068581	0.4848932061762654	-0.3981457013831475	-1.256476817201293	0.6487014237447363	-0.3858425490371217	1.553313717085892	-1.330429543555228	-1.330429543555183	0.03077253819628051	-0.08143550667771274	-0.5368738236776114	0.6857924374082035	3.99029075402495e-07	4.107890153384793e-07	-2.440659640589578e-06	-2.634829611459595e-07	4.614403540598009e-07	4.023176126424764e-07	3.776984340263782e-07
1.51	-0.3105750966010719	-0.01821892783379029	0.7777331471065888	1.104236581170905	-0.3053230587301581	-0.0008065176305812689	-0.3289104268441966	0.7857015444933401	0.7857015444932591	-0.1732905068125456	0.1685956692598453	0.1723768968460972	-0.01758182432329524	0.3743073018238897	0.1393207324480172	0.4713625129801979	-1.975940544262627	-0.003716599626909625	-0.6945250378872505	0.5901348721144507	-2.070957629992565	-2.070957629992689	0.005999141253507931	-0.0369424478280066	-0.5937952771489826	-0.1048062392242356	-0.175672846608436	0.02002161146602587	-0.0262186021187664	-0.2532644712287024	0.08724888278623021	0.04035159391674469	0.1796054283813874	-9.913899622234462	-18.92323514097329	6.19468843083948	-0.9835519104365908	-603.830873595147	-61.41688399251387	-22.42968763636853	0.4167752908052145	0.4767263134837615	-0.45592977462102	-1.11425614953397	0.6289384274558373	-0.2784901545795836	1.494924361799527	-1.175944610645133	-1.175944610669241	-0.0728305349953383	-0.08413738238161039	-0.4939776642213922	0.6551274306830581	4.319575902926776e-07	5.32861246092159e-07	-2.554147743702557e-06	-2.676077020577449e-07	5.006618697715532e-07	5.106043661555557e-07	4.037598791757239e-07
1.52	-0.3068118799683232	-0.0168020729459577	0.7824230015115627	1.084424656050606	-0.3053278274345759	-0.007765924187343947	-0.3229349310595849	0.7649364828422416	0.7649364828421863	-0.1732321435785905	0.1682223345737738	0.1664155093051846	-0.01859605223937448	0.3782850229744471	0.1440344513126423	0.466510634703859	-1.986166738139751	0.002791073638540397	-0.6972815298727458	0.6048856692807132	-2.081759673505734	-2.081759673506018	0.005688001011192062	-0.03771614107835224	-0.5983832209892948	-0.09801275412099815	-0.1699801191329	0.01943274598802317	-0.02607850651582398	-0.2503718591910888	0.08920946099822868	0.0401435098644791	0.1747725284869764	-9.086639532664522	-19.06762351636814	6.320410024999982	-1.273814729235808	-599.9382367889493	-61.74180386982199	-23.67595439994767	0.3749882892067916	0.4655090671715331	-0.5145922872044639	-0.9227720546956742	0.6852803845276032	-0.2931423389989609	1.458975084440888	-0.9770649748395797	-0.9770649748395075	0.04800970547600239	-0.06735366960790096	-0.4181170236562041	0.7193910231657298	4.833899908384452e-07	6.191148701790525e-07	-2.780601201036211e-06	-2.903886641120101e-07	5.578831597960025e-07	6.234635525919495e-07	4.428266293355719e-07
1.53	-0.3030103093640801	-0.0153386058330471	0.7870614963794494	1.064518602683222	-0.3052670560193104	-0.0147496452694802	-0.3168144677748551	0.7440720493461851	0.7440720493463036	-0.173177717049857	0.1678411589061767	0.1604111042032896	-0.01954204157422538	0.3819785030938996	0.1486383808666976	0.4610954744263397	-1.994759531715315	0.009376627929357196	-0.6993518252387122	0.6191201794852248	-2.090821032628969	-2.090821032629055	0.005180210455618822	-0.03852876902919077	-0.6023929303027359	-0.09117481924698011	-0.164317331696756	0.01865768032678849	-0.02585572293072394	-0.2474766163846353	0.09103879812634076	0.03981731377746087	0.1699404751098437	-8.312505379759227	-19.14568898302115	6.429016524997974	-1.468945719963281	-596.1455550541182	-61.9894207746791	-24.91521954025077	0.3589906957784749	0.4546751791919504	-0.5687725448283163	-0.7848037125260205	0.6476393870679112	-0.1468711724795945	1.392667761445405	-0.8248772242960719	-0.8248772242663297	-0.1027902702398658	-0.08904489842115597	-0.3766742688336002	0.6678159588565498	5.544827698932717e-07	6.673112246824858e-07	-3.127080347229331e-06	-3.329918611301602e-07	6.342292100276924e-07	7.411809490093652e-07	4.957115160690785e-07
1.54	-0.2991733113941492	-0.01382973136866209	0.7916430807152005	1.044535167239374	-0.3051399397739952	-0.02175064891269318	-0.3105542636334822	0.7231261610902493	0.7231261610905449	-0.173128891793511	0.1674516914509535	0.1543697467315309	-0.02041928731246874	0.3853704961119118	0.1531159216075232	0.455128528276718	-2.001643153432451	0.01606003964854219	-0.7007380420880432	0.6328338406093016	-2.098050625481428	-2.098050625481315	0.004567746533410047	-0.03937449860400274	-0.6057736949619976	-0.0842640347994937	-0.1586545442606152	0.01788261466555161	-0.02563293934560011	-0.244581373578185	0.09286813525445255	0.03949111769044	0.1651084217327085	-7.539931762105161	-19.22713055560232	6.542332177385918	-1.701706410884762	-592.4145408658969	-62.33856981995656	-26.14652363813677	0.3146908689187254	0.4402313045256089	-0.6249494616249273	-0.5809376830100846	0.7048518702012387	-0.1563266356718646	1.354805268353946	-0.6107117206842413	-0.6107117206843056	0.02707503214889444	-0.07397399440259328	-0.2923280928203183	0.7339609378594043	5.715451057672259e-07	8.252148075616973e-07	-3.168059266536584e-06	-3.219955612770311e-07	6.627474391783543e-07	8.543441401694621e-07	5.133959035086419e-07
1.55	-0.2953039395100513	-0.01227675524069837	0.7961623238382259	1.024491418301824	-0.3049455366407338	-0.02876314049492137	-0.304159775033257	0.7021172080699937	0.7021172080702295	-0.173086000662328	0.1670542806897318	0.1482977473990784	-0.02122707445863484	0.3884463409195866	0.1574536850477788	0.4486353680494619	-2.006816238838654	0.02282643640055061	-0.7016363495048346	0.6459549649442473	-2.10343504018069	-2.103435040180802	0.00398551970627643	-0.04012665352516179	-0.608520299832598	-0.07729125431397944	-0.1527490100110193	0.01671060518249367	-0.02538829005031914	-0.2421712153736925	0.09516953123030167	0.03903010432750555	0.1600851493074078	-6.633056806950973	-19.2701600280411	6.645665303114653	-1.966804924822704	-588.8708429861299	-62.70319824404292	-27.3693892729106	0.2954463672711155	0.4266642580868527	-0.6740842673624975	-0.4418745029243279	0.6636904166185417	-0.03754036334579104	1.27442884234013	-0.45666114942819	-0.4566611494619506	-0.1045613644650204	-0.07816002745099541	-0.2499348677496187	0.6793706121545745	5.263549744980046e-07	1.109520197047777e-06	-2.857048793997098e-06	-2.492433193765619e-07	6.361597005617479e-07	9.622600948374309e-07	4.905231939356206e-07
1.56	-0.291405526161761	-0.01068117839946986	0.8006141183661614	1.004404662403511	-0.3046832381721691	-0.03578080666505003	-0.2976373426244275	0.6810635399417696	0.6810635399419429	-0.17304966976428	0.1666488836220027	0.1422014603812058	-0.02196504699829437	0.3911787889504327	0.1616360642604824	0.4416388092587422	-2.010244545584813	0.02963910670927547	-0.7017729596681472	0.6584226023302038	-2.106993647075193	-2.10699364707553	0.003255699906321514	-0.04097175990545841	-0.6106312320459869	-0.07030111349817959	-0.1468434757614272	0.01553859569943436	-0.02514364075503693	-0.239761057169201	0.09747092720615054	0.03856909096456963	0.1550618768821039	-5.727644118282302	-19.31609650913622	6.753076786850395	-2.26585035203666	-585.3867750073924	-63.16069905490954	-28.57788380922429	0.2460115135529843	0.4091544590151811	-0.7256291743176314	-0.2319819510011928	0.714106581544525	-0.003987184976156069	1.224107878556108	-0.2455501597323786	-0.2455501597324085	-0.002443562415366033	-0.09256428623010422	-0.1651935613780025	0.737433003916524	4.340775147498774e-07	1.416919415424383e-06	-2.340552341973213e-06	-1.420042474909851e-07	5.620822472314886e-07	1.020368826166898e-06	4.394370571663061e-07
1.57	-0.2874816096005121	-0.009044639510640301	0.804993454081487	0.984292810211147	-0.3043521705765568	-0.04279834574028781	-0.290993512504839	0.6599841670052461	0.6599841670054446	-0.1730191016217344	0.1662361088834339	0.1360875367585887	-0.02263248006918414	0.3935470725928581	0.1656369073281125	0.4341499770139692	-2.011817520829929	0.0365815918687616	-0.7016244298086063	0.6702180272341911	-2.108552897500632	-2.10855289750098	0.002858429640367324	-0.04158716760386039	-0.6120413264438734	-0.06318028343662953	-0.1409914565578036	0.01446540275099981	-0.02488883116230673	-0.237244248641192	0.09954402507541839	0.03782582267635259	0.1500449055165921	-4.912934131854999	-19.21216413008871	6.823567419004537	-2.420207681377295	-582.021864704764	-63.34841791277142	-29.75663778603306	0.223640200530129	0.3903472854768591	-0.772193405658573	-0.07367277409187369	0.6853668160550951	0.04116031417147285	1.138450643323697	-0.06196674778577087	-0.06196674778734471	-0.05805244269007821	-0.04637879263421275	-0.1120637795490832	0.700015056293265	2.829408944031181e-07	1.753185919914147e-06	-1.56719841559383e-06	8.343361875976113e-09	4.286426505091639e-07	1.016218528323238e-06	3.530841364016255e-07
1.58	-0.2835357295206505	-0.00736913258016648	0.8092955648431446	0.9641744847737657	-0.3039514686627689	-0.04981102206838008	-0.2842354899668101	0.6388990307117015	0.6388990307119247	-0.1729924429186487	0.1658171101116829	0.1299628829118815	-0.0232285834296546	0.3955714926729967	0.1694296725893354	0.4261938185251367	-2.011539194588051	0.04356597034442614	-0.7008004102389753	0.6812610860183252	-2.108146318479513	-2.108146318479871	0.002473812014227599	-0.04221656654182122	-0.6127772768639644	-0.05603517141431878	-0.1351394373541859	0.01339220980256211	-0.02463402156957483	-0.2347274401131846	0.1016171229446854	0.03708255438813186	0.1450279341510758	-4.105545243541356	-19.10938626475711	6.897025826353065	-2.575981297984793	-578.791654663846	-63.60680983604087	-30.89910342327759	0.1772388010955979	0.367538897733747	-0.8190944231295501	0.1382783463972788	0.7224852447802045	0.1311107570418432	1.073634654585458	0.1476157295793856	0.1476157295794133	8.696554752578994e-05	-0.09536253414187253	-0.03036476581891233	0.742289396068664	1.866046257002096e-07	1.98587431977646e-06	-1.090862406440409e-06	1.045018344173276e-07	3.471932148466474e-07	1.025836470825224e-06	3.009816448145681e-07
1.59	-0.2795713984844081	-0.005656767356903631	0.8135158535058514	0.9440682521100288	-0.3034809273804807	-0.05681230010906519	-0.2773709053788675	0.6178278801954311	0.6178278801955159	-0.1729697240545504	0.1653920486220126	0.1238342580224028	-0.02375332153078586	0.3972294612653353	0.1730051353316684	0.4177934453485602	-2.009391173291715	0.05052565926855269	-0.6993326595470067	0.6915188384466413	-2.105749932529381	-2.105749932529311	0.002038239551133812	-0.04279398225353184	-0.6128350315932962	-0.04893182143130505	-0.1291331201016643	0.01188629098381581	-0.02444196940452447	-0.2325257416400969	0.1041116087721409	0.03633337826891353	0.1399064811744861	-3.173108661410979	-19.02718758939557	6.975192194874784	-2.808443372457591	-575.7304420932854	-63.96631936747772	-31.99892908308937	0.1503041563389375	0.3468425719933691	-0.8610131028630968	0.3005097692215134	0.6801382480298286	0.1733059094866279	0.9812965684193242	0.3356694619570254	0.335669462021282	-0.06986252676811416	-0.03844160567008282	0.0234489745628554	0.69123024831991	1.646402627996659e-07	2.077992434787239e-06	-1.017622142093627e-06	1.271179069810702e-07	3.363018549081525e-07	1.054139882367726e-06	2.953618785399968e-07
